<svg xmlns="http://www.w3.org/2000/svg" width="256" height="256"><path fill="#1976D2" fill-opacity=".016" fill-rule="evenodd" d="M0 128.004v128.004l128.25-.254 128.25-.254.254-127.75L257.008 0H0zm.485.496c0 70.4.119 99.053.265 63.672s.146-92.98 0-128S.485 58.1.485 128.5"/><path fill="#1976D2" fill-opacity=".207" fill-rule="evenodd" d="M12.623 51.128C11.205 53.153 11 57.639 11 86.723c0 31.944.08 33.357 2 35.277 2.407 2.407 3.84 2.501 6.777.443 2.067-1.447 2.223-2.325 2.223-12.5V99h4.352c4.842 0 9.61-2.674 13.056-7.322 1.828-2.465 2.131-4.485 2.401-16 .286-12.152.13-13.524-2-17.619-3.639-7-6.464-8.501-16.757-8.904-8.269-.324-8.905-.203-10.429 1.973m34.818-.71c-1.844 1.348-1.955 3.091-2.229 34.901l-.288 33.481 2.48 2.85c2.383 2.739 2.589 2.79 5.288 1.312l2.808-1.538.263-34.369c.237-30.918.096-34.553-1.405-36.212-1.998-2.207-4.285-2.348-6.917-.425M62 51c-1.1 1.1-2 2.675-2 3.5 0 2.506 3.811 5.5 7 5.5h3v28.038l2.75-.681c8.596-2.13 7.717-.524 8.03-14.677L81.06 60h2.97c3.035 0 6.97-2.979 6.97-5.277 0-.703-.701-2.278-1.557-3.5C87.982 49.137 87.152 49 75.943 49c-10.61 0-12.166.223-13.943 2m36.009-.145c-2.04 1.095-4.392 3.621-5.734 6.158C90.291 60.765 90 62.78 90 72.782V84.25l3.125-.625c1.719-.344 4.194-.625 5.5-.625 2.34 0 2.375-.145 2.375-9.918 0-11.943.354-13.082 4.072-13.082 3.466 0 4.928 2.332 4.928 7.863 0 6.011 3.412 8.593 8.066 6.102 2.805-1.501 2.765-13.089-.061-17.724-4.161-6.825-12.915-9.183-19.996-5.386M126 51c-1.848 1.848-2 3.333-2 19.487v17.488l4.076 2.573c6.819 4.304 6.924 4.283 6.924-1.441V84h9v19.048l4.75 6.933c2.613 3.814 5.088 6.953 5.5 6.976.412.024.75-14.257.75-31.734C155 50.822 154.728 49 149.598 49 145.114 49 144 51.752 144 62.829V73h-9V62.655c0-8.752-.282-10.6-1.829-12-2.43-2.199-4.738-2.088-7.171.345M22 74v14h3.3c5.175 0 5.7-1.222 5.7-13.266C31 61.92 30.279 60 25.465 60H22zm68.173 26.876c.288 12.322.576 14.321 2.419 16.805 5.149 6.939 12.472 9.042 19.388 5.567 5.323-2.674 8.02-7.448 8.02-14.196 0-6.253-1.117-8.052-5-8.052-3.501 0-5 1.728-5 5.766 0 1.851-.466 4.236-1.035 5.3-1.183 2.21-5.188 2.575-6.809.622-.612-.737-1.214-6.548-1.373-13.25L100.5 87.5l-5.327-.305-5.326-.305zM73 88.894l-2.5.694-.276 15.18c-.256 14.114-.133 15.323 1.75 17.206 2.556 2.556 4.489 2.563 7.026.026 1.833-1.833 2-3.333 2-18V88l-2.75.1c-1.513.055-3.875.412-5.25.794M162 90c-2.491 2.491-2.554 5.189-.171 7.345 2.738 2.478 16.231 2.352 18.516-.174 2.199-2.43 2.088-4.738-.345-7.171-1.619-1.619-3.333-2-9-2s-7.381.381-9 2m-38 18.935c0 4.914.424 10.051.943 11.414 1.251 3.292 4.51 4.239 7.606 2.211 2.098-1.375 2.451-2.38 2.451-6.975 0-4.971-.34-5.747-4.593-10.477-2.526-2.809-5.001-5.108-5.5-5.108s-.907 4.021-.907 8.935M12.581 134.328C10.003 136.907 10 136.926 10 154.455V172H7.023c-2.072 0-3.475.76-4.615 2.5-1.519 2.318-1.517 2.684.022 5.034.914 1.394 2.99 2.8 4.615 3.125l2.955.591v9.652c0 10.7 1.322 14.098 5.485 14.098 4.592 0 5.515-2.249 5.515-13.443v-10.299l4.75-.634c6.56-.874 10.992-3.842 13.286-8.895 1.548-3.408 1.924-6.565 1.942-16.267.019-10.529-.26-12.595-2.228-16.477-3.02-5.958-7.151-8.183-16.281-8.769-6.83-.438-7.476-.3-9.888 2.112m34.642-.771C45.008 135.108 45 135.219 45 165.909c0 30.351.033 30.844 2.27 34.193 3.648 5.461 7.682 6.895 19.409 6.896 7.921.002 10.527-.346 11.75-1.569 2.38-2.381 1.945-6.138-.929-8.021L75 195.77v-60.724l-2.557-1.675c-2.424-1.588-2.699-1.571-5.25.334l-2.693 2.01-.265 30.142L63.971 196h-3.51c-2.848 0-3.695-.484-4.486-2.565-.549-1.444-.975-14.75-.975-30.443 0-27.675-.016-27.89-2.223-29.435C51.555 132.701 50.305 132 50 132s-1.555.701-2.777 1.557m33 0c-2.449 1.715-3.012 6.254-1.023 8.243.66.66 2.685 1.2 4.5 1.2H87v29.777c0 32.328.304 34.223 5.485 34.223 5.423 0 5.515-.562 5.515-33.571V143h3.345c5.887 0 8.535-5.12 4.655-9-1.753-1.753-3.333-2-12.777-2-8.137 0-11.323.382-13 1.557M113 134c-3.926 3.926-1.204 9 4.829 9H121v30.429c0 33.009.092 33.571 5.515 33.571 5.181 0 5.485-1.895 5.485-34.223V143h3.3c4.019 0 5.7-1.517 5.7-5.143 0-4.698-3.013-5.857-15.223-5.857-9.444 0-11.024.247-12.777 2m64.571.571c-1.325 1.325-1.571 4.744-1.571 21.8 0 14.4.346 20.575 1.2 21.429 1.714 1.714 5.478 1.482 6.193-.382.334-.87.607-9.42.607-19V141h3.3c5.446 0 5.7.828 5.7 18.618 0 8.92.273 16.93.607 17.8.715 1.864 4.479 2.096 6.193.382 1.706-1.706 1.637-34.378-.079-37.77-2.308-4.56-7.331-7.03-14.297-7.03-4.377 0-6.758.476-7.853 1.571m28.563-.232c-.838 1.009-1.097 7.54-.904 22.788l.27 21.373 8.982.292c7.482.244 9.188.012 10.212-1.388 2.331-3.188-.067-5.271-6.453-5.604l-5.741-.3-.3-5.75-.3-5.75h3.479c1.913 0 4.185-.707 5.05-1.571 1.859-1.86 1.875-1.993.536-4.495-.756-1.413-2.104-1.934-5-1.934H212v-10.9l5.646-.3c6.327-.336 8.762-2.34 6.743-5.55-1.483-2.359-16.435-3.105-18.255-.911m22.437.232c-1.859 1.86-1.875 1.993-.536 4.495.664 1.239 2.092 1.934 3.978 1.934h2.943l.272 18.75.272 18.75h6l.272-18.75.272-18.75h2.778c4.912 0 7.176-4.86 3.244-6.965-3.195-1.709-17.646-1.312-19.495.536M21 157.5V172h2.929c5.283 0 6.071-1.883 6.071-14.5s-.788-14.5-6.071-14.5H21zm130.756-1.745c-5.508 3.414-7.265 11.258-3.796 16.946 4.817 7.902 15.013 8.234 20.952.684 3.888-4.943 2.163-14.14-3.326-17.737-3.243-2.124-10.32-2.07-13.83.107m1.803 1.777c-1.068.807-1.405 1.468-.75 1.468s1.191.498 1.191 1.107-.675.848-1.5.531c-2.115-.811-1.863.63.671 3.853 2.016 2.562 2.264 2.634 3.452 1.009.728-.994 1.95-1.494 2.829-1.157 2.172.834 1.928 2.456-.426 2.837-1.423.231-1.728.715-1.091 1.732.741 1.185 1.169 1.127 2.657-.361 1.697-1.697 1.829-1.696 3.09.029 1.263 1.728 1.379 1.722 2.786-.139 1.778-2.35 1.864-3.117.451-3.991-.595-.368-.815-1.73-.489-3.028.477-1.898.014-2.658-2.369-3.891-3.703-1.914-7.97-1.914-10.502.001m.108 4.135c-1.268 1.267-.659 2.333 1.333 2.333 1.111 0 2-.667 2-1.5 0-1.522-2.115-2.051-3.333-.833m6.333.76c0 .927.855 1.573 2.083 1.573 2.437 0 2.093-2.337-.416-2.823-.987-.192-1.667.318-1.667 1.25m3.688 2.219c-1.305 1.304-.682 2.354 1.395 2.354 1.164 0 1.909-.524 1.688-1.187-.487-1.462-2.157-2.094-3.083-1.167m-7.66 31.428c-6.156 1.095-12.221 3.789-12.812 5.69-.218.704 1.309 2.033 3.446 2.999 3.075 1.391 6.719 1.736 18.338 1.736 13.225.001 14.922-.207 19.301-2.363 5.774-2.843 5.832-4.856.199-6.86-5.049-1.796-21.279-2.481-28.472-1.202"/><path fill="#1976D2" fill-opacity=".377" fill-rule="evenodd" d="M14.25 50.48 12 52.113v34.244c0 36.181.058 36.643 4.643 36.643 4.044 0 5.357-3.486 5.357-14.223V99h3.288c4.938 0 11.762-3.923 13.888-7.984C40.677 88.149 41 85.161 41 74.167c0-15.315-1.051-18.799-6.73-22.309-4.752-2.937-16.737-3.762-20.02-1.378m33.973.077L46 52.113v34.244c0 36.164.061 36.643 4.629 36.643 4.626 0 5.371-2.175 5.371-15.678 0-11.505-.144-12.486-1.75-11.927-1.667.581-1.667.545 0-.753C55.814 93.425 56 91.135 56 73.14c0-18.807-.132-20.272-2-22.14-2.408-2.408-2.917-2.447-5.777-.443m15 0c-2.432 1.703-2.952 5.593-.969 7.239.69.572 2.827 1.19 4.75 1.372l3.496.332.279 13.823.278 13.823 3.222-.691C81.072 84.997 81 85.158 81 71.465V59h3.3c3.853 0 5.7-1.504 5.7-4.643C90 50.283 86.528 49 75.5 49c-7.482 0-10.624.398-12.277 1.557m36.277-.209c-6.928 3.184-9.394 9.156-9.456 22.902L90 83h10v-9.777C100 62.765 101.32 59 104.985 59c3.275 0 5.015 2.793 5.015 8.048 0 4.129.396 5.165 2.5 6.544 2.316 1.517 2.684 1.517 5 0 2.172-1.423 2.5-2.37 2.5-7.214 0-6.625-2.14-11.63-6.215-14.531-3.688-2.626-10.319-3.322-14.285-1.499m27.723.209c-2.159 1.512-2.223 2.079-2.215 19.75l.007 18.193 4.243 2.5c2.333 1.375 4.58 2.65 4.992 2.833s.75-2.179.75-5.25V83h9v10.441c0 6.514.414 10.697 1.1 11.121.605.374 2.855 3.395 5 6.714l3.9 6.034V84.712c0-32.553-.003-32.601-2.223-34.155-2.86-2.004-3.369-1.965-5.777.443-1.746 1.746-2 3.333-2 12.5V74h-9V63.5c0-9.167-.254-10.754-2-12.5-2.408-2.408-2.917-2.447-5.777-.443M22 74v15h2.929C30.256 89 31 87.16 31 73.985c0-11.134-.138-11.968-2.223-13.428-1.222-.856-3.247-1.557-4.5-1.557C22.009 59 22 59.057 22 74m68.347 14.539c-.325.846-.402 6.836-.171 13.311.504 14.138 1.92 17.436 9 20.962 3.554 1.77 5.501 2.152 8.305 1.626 4.225-.793 8.943-4.424 11.055-8.507 1.96-3.791 1.899-11.353-.107-13.36-3.722-3.721-8.429-.662-8.429 5.477 0 6.654-6.85 9.107-9.077 3.251-.507-1.336-.923-7.069-.923-12.739V88.25l-3.125-.625c-4.699-.94-5.88-.775-6.528.914M75 88.889l-3.5.611-.277 15.365C70.928 121.252 71.35 123 75.599 123c4.618 0 5.483-3.266 5.178-19.534-.165-8.848-.679-14.88-1.277-14.995-.55-.107-2.575.081-4.5.418m86.557 2.334c-2.004 2.86-1.965 3.369.443 5.777 1.594 1.594 3.333 2 8.566 2 8 0 10.434-1.128 10.434-4.835 0-4.327-1.645-5.165-10.143-5.165-6.868 0-7.92.251-9.3 2.223M125 110.241c0 10.967.65 12.759 4.629 12.759 3.477 0 5.371-2.638 5.371-7.482 0-3.543-.725-5.255-3.954-9.341-2.175-2.751-4.425-5.293-5-5.649-.702-.434-1.046 2.76-1.046 9.713M12.2 134.2c-.846.846-1.2 6.6-1.2 19.5V172H8.071C4.586 172 2 174.287 2 177.371 2 180.496 3.852 182 7.7 182H11v10.929c0 8.601.335 11.263 1.571 12.5 2.107 2.106 4.021 1.979 6.429-.429 1.746-1.746 2-3.333 2-12.5V182l4.25-.004c5.153-.004 10.034-2.774 12.755-7.237 1.733-2.842 1.988-5.049 1.988-17.259s-.255-14.417-1.988-17.259c-3.34-5.479-7.353-7.233-16.555-7.237-4.933-.003-8.515.461-9.25 1.196m34.33.412c-1.425 1.426-1.578 5.124-1.321 31.929.277 28.817.393 30.453 2.353 33.076 4.258 5.699 6.904 6.857 16.541 7.234 4.927.193 10.057.075 11.399-.262 4.689-1.177 5.733-7.745 1.447-9.105-1.875-.595-1.949-1.762-1.949-30.896 0-28.063-.134-30.399-1.829-31.933-2.148-1.944-5.278-2.148-6.971-.455-.881.881-1.2 9.378-1.2 32V197h-3.345c-6.594 0-6.655-.301-6.655-32.629 0-21.2-.322-29.293-1.2-30.171-1.697-1.697-5.369-1.488-7.27.412m32.505.322c-.569 1.064-1.035 2.569-1.035 3.345 0 2.334 3.453 4.721 6.829 4.721H88v30.345c0 28.128.134 30.466 1.829 32 2.39 2.163 3.738 2.088 6.171-.345 1.911-1.911 2-3.333 2-32v-30h3c2.75 0 7-2.901 7-4.777 0-.428-.701-1.778-1.557-3-1.466-2.094-2.276-2.223-13.965-2.223-11.244 0-12.505.181-13.443 1.934m33.542.259c-.867 1.239-1.577 2.602-1.577 3.03 0 1.876 4.25 4.777 7 4.777h3v30c0 28.667.089 30.089 2 32 2.408 2.408 4.322 2.535 6.429.429 1.359-1.36 1.571-5.671 1.571-32V143h3.345c4.613 0 7.365-3.076 6.065-6.78l-.955-2.72-12.65-.279c-12.144-.268-12.714-.189-14.228 1.972M21 157.5V172h3.3c5.254 0 5.7-1.134 5.7-14.5s-.446-14.5-5.7-14.5H21zm131.19-1.533c-8.699 5.457-7.274 17.486 2.568 21.679 8.374 3.567 17.597-4.612 15.829-14.036-1.458-7.767-11.529-11.952-18.397-7.643m.81 1.048c-1.333.876-1.333 1.101 0 2.027 1.255.871 1.19.994-.396.75-3.418-.526-2.75 1.836 1.833 6.485 4.737 4.805 7.962 6.505 9.038 4.764.373-.604-.306-1.041-1.616-1.041-1.662 0-1.964-.295-1.143-1.116s1.725-.689 3.422.5c2.886 2.022 4.249 2.067 3.5.116-.316-.825-.158-1.5.351-1.5.51 0 .797-1.645.639-3.655-.398-5.053-4.331-8.35-9.934-8.33-2.307.009-4.869.459-5.694 1m1 4.795c0 .537.713 1.249 1.584 1.584.973.373 1.431.15 1.187-.581-.498-1.495-2.771-2.318-2.771-1.003m6.565.085c-.305.493.104 1.148.909 1.457 1.562.599 2.897-.648 1.832-1.713-.904-.904-2.093-.793-2.741.256M166.5 163c.34.55.816 1 1.059 1s.441-.45.441-1-.477-1-1.059-1-.781.45-.441 1m-8.861 1.694c-1.091 1.091-.706 1.973.861 1.973.825 0 1.5-.349 1.5-.775 0-1.126-1.613-1.945-2.361-1.198m7.028-.027c-.367.366-.667 1.131-.667 1.7 0 .626.466.567 1.183-.15.651-.651.951-1.416.667-1.7s-.817-.217-1.183.15M151 167c0 .55.477 1 1.059 1s.781-.45.441-1-.816-1-1.059-1-.441.45-.441 1m-2 1.882c0 .55.45 1.278 1 1.618s1 .168 1-.382-.45-1.278-1-1.618-1-.168-1 .382m5 1.149c0 .533.675.969 1.5.969s1.5-.177 1.5-.393-.675-.652-1.5-.969-1.5-.139-1.5.393m-2 1.851c0 .55.45 1.278 1 1.618s1 .168 1-.382-.45-1.278-1-1.618-1-.168-1 .382m5.5 1.118c.34.55 1.068 1 1.618 1s.722-.45.382-1-1.068-1-1.618-1-.722.45-.382 1m-2.5 2c0 .55.477 1 1.059 1s.781-.45.441-1-.816-1-1.059-1-.441.45-.441 1m6 0c0 .55.477 1 1.059 1s.781-.45.441-1-.816-1-1.059-1-.441.45-.441 1m-11.926 24.276c-5.756 1.592-6.213 3.339-1.412 5.4 7.776 3.338 38.338 1.652 38.338-2.115 0-.682-1.238-1.839-2.75-2.571-3.776-1.829-28.295-2.341-34.176-.714"/><path fill="#1976D2" fill-opacity=".532" fill-rule="evenodd" d="M13.2 51.2c-.886.886-1.2 10.029-1.2 34.929 0 29.329.205 33.933 1.571 35.3 1.913 1.912 4.801 2.033 6.271.262.597-.721 1.215-6.233 1.372-12.25L21.5 98.5l5.801-.623c6.478-.696 10.012-3.161 12.328-8.595 2.139-5.02 1.874-26.775-.381-31.262-3-5.972-7.263-8.02-16.696-8.02-5.007 0-8.615.463-9.352 1.2m33.835.734C46.382 53.155 46 66.031 46 86.863c0 28.661.206 33.201 1.571 34.566 1.872 1.871 4.568 2.032 6.229.371 1.214-1.214 1.818-25.8.634-25.8-.311 0-1.474.486-2.585 1.081s-2.249.853-2.528.574.885-1.227 2.586-2.107L55 93.949V73.174c0-14.824-.344-21.118-1.2-21.974-1.837-1.837-5.608-1.428-6.765.734M62.2 51.2c-3.162 3.162.032 7.8 5.371 7.8H71v14.107c0 13.026.134 14.055 1.75 13.43.963-.372 2.987-.927 4.5-1.232L80 84.75V59h3.429c5.339 0 8.533-4.638 5.371-7.8-1.659-1.659-24.941-1.659-26.6 0m35.351.697c-5.235 3.557-6.462 7.301-6.509 19.853L91 83h9V72.571c0-11.294.914-13.571 5.449-13.571 3.172 0 4.17 1.599 4.983 7.981.734 5.762 1.652 6.979 5.283 7.004 6.133.042 5.634-14.403-.708-20.478-4.032-3.863-12.932-4.684-17.456-1.61m28.484.037C125.438 53.05 125 61.065 125 70.878v17.009l4.25 2.54 4.25 2.541.302-4.984.303-4.984H145v19.981l4.5 6.572 4.5 6.573V84.263C154 50.772 153.899 50 149.5 50c-3.868 0-4.5 1.853-4.5 13.2V74h-11V63.2c0-7.067-.415-11.215-1.2-12-1.837-1.837-5.608-1.428-6.765.734M21 74v15h3.943C30.962 89 32 86.793 32 74s-1.038-15-7.057-15H21zm70 26.55c0 13.451.66 15.941 5.397 20.367 3.672 3.43 11.841 3.986 16.411 1.118 3.739-2.347 7.137-8.879 7.17-13.785.02-3.02-2.773-7.25-4.787-7.25-2.34 0-4.378 2.968-4.76 6.931-.493 5.119-1.844 7.069-4.898 7.069-4.562 0-5.533-2.691-5.533-15.329V88h-9zM72.75 89.689C71.179 90.1 71 91.723 71 105.595c0 15.288.025 15.459 2.374 16.529 1.722.785 2.956.77 4.5-.056C79.906 120.98 80 120.223 80 104.965V89l-2.75.116c-1.513.064-3.537.322-4.5.573m90 .391c-2.009 1.17-2.318 4.952-.55 6.72.723.723 4.222 1.2 8.8 1.2s8.077-.477 8.8-1.2c1.837-1.837 1.428-5.608-.734-6.765-2.474-1.324-14.02-1.292-16.316.045m-37.727 20.099c-.024 10.147.987 12.821 4.848 12.821 2.959 0 4.129-2.199 4.129-7.758 0-4.981-.315-5.689-4.477-10.05l-4.477-4.692zm-112.368 24.65c-1.412 1.56-1.655 4.495-1.655 20V173H7.479c-2.785 0-3.76.523-4.659 2.496-.94 2.062-.822 2.844.676 4.5C4.502 181.107 6.578 182 8.155 182H11v10.8c0 11.347.632 13.2 4.5 13.2 3.86 0 4.5-1.859 4.5-13.06v-10.66l5.493-.567c3.149-.325 6.724-1.444 8.377-2.62 5.048-3.595 6.13-7.435 6.13-21.76 0-15.359-1.165-18.56-8.036-22.083-5.784-2.966-16.789-3.206-19.309-.421m35.095-.749c-1.607.936-1.75 3.534-1.746 31.72.003 28.685.132 30.91 1.956 33.901C51.087 204.83 54.498 206 66.328 206c7.872 0 10.721-.354 11.626-1.445 1.777-2.141.864-5.916-1.704-7.042l-2.25-.987v-30.728c0-29.356-.086-30.774-1.934-31.763-2.628-1.406-3.652-1.306-5.495.536-1.359 1.36-1.571 5.671-1.571 32V197h-3.8c-2.09 0-4.34-.54-5-1.2-.878-.878-1.2-9.01-1.2-30.345 0-26.965-.137-29.269-1.829-30.8-2.099-1.9-2.985-1.994-5.421-.575m31.702 1.353C76.99 139.191 78.95 142 84.035 142H88v30.066c0 18.812.387 30.789 1.035 32 1.189 2.221 5.191 2.572 6.828.6.743-.896 1.194-11.346 1.372-31.75L97.5 142.5l3.496-.332c4.338-.411 6.004-1.731 6.004-4.755 0-3.567-2.86-4.413-14.911-4.413-10.594 0-11.108.099-12.637 2.433m34.298-1.353c-2.029 1.182-2.325 5.198-.496 6.716.69.572 2.827 1.19 4.75 1.372l3.496.332.265 30.416c.178 20.404.629 30.854 1.372 31.75 1.378 1.659 5.063 1.734 6.663.134.881-.881 1.2-9.378 1.2-32V142h3.965c5.085 0 7.045-2.809 4.583-6.567-1.534-2.342-2.016-2.432-12.821-2.403-6.175.017-12.014.489-12.977 1.05m-93.262 9.09c-.301.785-.421 7.705-.268 15.378l.28 13.952 3.925-.13c2.522-.083 4.399-.777 5.25-1.941 1.789-2.446 1.847-23.333.072-25.761-1.7-2.324-8.518-3.427-9.259-1.498m132.961 12.381c-6.778 3.346-8.66 12.943-3.64 18.562 2.281 2.552 3.782 3.237 7.976 3.64 4.865.468 5.37.292 8.69-3.028 1.939-1.939 3.575-4.583 3.636-5.875.355-7.543-1.496-11.277-6.657-13.434-4.263-1.781-6.175-1.755-10.005.135m.444.946c-3.26 1.772-5.432 5.243-5.321 8.503.233 6.8.399 7.429 1.628 6.2.933-.933.933-1.467 0-2.4-.66-.66-1.2-1.737-1.2-2.393 0-1.561 2.76-2.604 3.542-1.339.334.54.236.858-.218.707s-1.049.175-1.324.725.645 1.02 2.044 1.044 3.536 1.036 4.75 2.25S160.62 172 161.378 172c.757 0 1.991.74 2.742 1.644 1.222 1.473 1.104 1.563-1.128.868-1.371-.427-2.642-1.167-2.825-1.644-.464-1.206-3.167-1.093-3.167.132 0 .55.675 1 1.5 1s1.5.45 1.5 1c0 1.307-.609 1.261-2.989-.225-1.547-.967-2.219-.967-3.186 0s-.603 1.257 1.725 1.376c4.916.251 8.881-.28 10.2-1.366 1.774-1.462 1.548-2.768-.5-2.885-1.1-.062-.821-.356.75-.789 5.185-1.43 3.418-11.736-2.493-14.541-4.026-1.91-6.203-1.927-9.614-.073m3.107 8.896c0 .216.675.652 1.5.969s1.5.139 1.5-.393c0-.533-.675-.969-1.5-.969s-1.5.177-1.5.393m-3.4 3.445c-.318.515.052 1.458.822 2.097.828.687 1.636.78 1.978.227.318-.515-.052-1.458-.822-2.097-.828-.687-1.636-.78-1.978-.227m7.4.162c0 .55.45 1 1 1s1-.45 1-1-.45-1-1-1-1 .45-1 1m-10.349 3.468c-.31.807-.224 1.678.19 1.934 1.247.77 3.468-1.094 2.728-2.29-.955-1.546-2.249-1.388-2.918.356M157 198.57c-7.998 1.383-13 2.668-13 3.341 0 3.287 21.991 5.305 34.141 3.133 3.769-.673 7.111-1.643 7.428-2.155 1.619-2.62-19.728-5.847-28.569-4.319"/></svg>